<svg xmlns="http://www.w3.org/2000/svg" viewBox="0 0 200 200" width="100" height="100">
  <!-- Cabeza -->
  <circle cx="100" cy="70" r="40" fill="#f5d0a9" stroke="#000" stroke-width="2"/>
  
  <!-- Cabello y barba -->
  <path d="M60 70 Q 80 20 100 30 Q 120 20 140 70" fill="none" stroke="#ccc" stroke-width="5"/>
  <path d="M70 90 Q 100 120 130 90" fill="#ccc" stroke="#ccc" stroke-width="3"/>
  
  <!-- Ojos -->
  <ellipse cx="80" cy="65" rx="5" ry="3" fill="#000"/>
  <ellipse cx="120" cy="65" rx="5" ry="3" fill="#000"/>
  
  <!-- Cejas -->
  <path d="M70 55 Q 80 45 90 55" fill="none" stroke="#ccc" stroke-width="3"/>
  <path d="M110 55 Q 120 45 130 55" fill="none" stroke="#ccc" stroke-width="3"/>
  
  <!-- Boca -->
  <path d="M85 90 Q 100 100 115 90" fill="none" stroke="#000" stroke-width="2"/>
  
  <!-- Nariz -->
  <path d="M100 65 Q 105 80 100 85" fill="none" stroke="#000" stroke-width="2"/>
  
  <!-- Cuerpo -->
  <path d="M100 110 L 100 170" stroke="#000" stroke-width="3"/>
  
  <!-- Brazos -->
  <path d="M100 120 L 70 150" stroke="#000" stroke-width="3"/>
  <path d="M100 120 L 130 150" stroke="#000" stroke-width="3"/>
  
  <!-- Bastón -->
  <path d="M70 150 L 60 190" stroke="#8B4513" stroke-width="3"/>
  <path d="M60 190 L 50 190" stroke="#8B4513" stroke-width="3"/>
  
  <!-- Piernas -->
  <path d="M100 170 L 85 195" stroke="#000" stroke-width="3"/>
  <path d="M100 170 L 115 195" stroke="#000" stroke-width="3"/>
  
  <!-- Gafas -->
  <circle cx="80" cy="65" r="10" fill="none" stroke="#000" stroke-width="1"/>
  <circle cx="120" cy="65" r="10" fill="none" stroke="#000" stroke-width="1"/>
  <line x1="90" y1="65" x2="110" y2="65" stroke="#000" stroke-width="1"/>
</svg>